<?xml version="1.0" encoding="UTF-8"?>
<svg id="Layer_2" data-name="Layer 2" xmlns="http://www.w3.org/2000/svg" viewBox="0 0 306.79 306.67">
  <defs>
    <style>
      .cls-1 {
        fill: #fff;
        stroke-width: 0px;
      }
    </style>
  </defs>
  <g id="content">
    <g>
      <g>
        <path class="cls-1" d="M82.31,113.32l-3.11,2.74-4.62-5.04-42.45,3.17-.32-4.02,8.59-.59,13.47-17.6,3.49,2.63-11.22,14.54,25.11-1.77-5.42-5.9,3.11-2.74,13.36,14.6ZM75.06,141.43h-4.4v-2.41h-27.63v2.74h-4.45v-22.75h36.49v22.43ZM70.66,135.21v-12.23h-27.63v12.23h27.63Z"/>
        <path class="cls-1" d="M107.4,124.58l-5.9,16.69-3.65-1.29,5.9-16.69,3.65,1.29ZM105.47,114.44l-2.84,2.41-4.45-5.31,2.84-2.41,4.45,5.31ZM106.54,98.45l-2.95,2.31-4.51-5.8,2.9-2.36,4.56,5.85ZM111.32,113.53c-.7,2.15-1.66,4.45-2.84,6.98l-2.63-1.23c1.13-2.41,1.99-4.61,2.68-6.65l2.79.91ZM120.5,110.36l-2.52,1.23-.59-1.13-2.09.21v9.07h-3.11v-8.75l-5.15.54-.27-2.9,2.25-.21,2.52-3.38-4.94-5.2,2.15-2.04.75.81,3.65-5.69,2.58,1.72-4.02,6.28,1.61,1.72,2.63-3.43,2.31,1.77-5.31,7.08,3.17-.27-.59-1.18,2.58-1.23,2.41,4.99ZM146.25,133.49c-4.51,4.94-9.44,7.89-11.48,7.89h-7.57v-3.43h6.76c1.29,0,3.27-1.18,5.9-3.38h-26.99l-.86,2.52-3.65-1.02,3.38-9.66h27.74v-2.25h-28.23v-3.06h31.87v8.26h-28.49l-.7,2.15h30.05l2.25,1.99ZM120.39,116.75l-2.58,1.29-2.15-4.24,2.58-1.29,2.15,4.24ZM146.79,109.02l-2.36,1.56-.75-1.18-2.79.21v10.03h-3.11v-9.82l-5.69.38-.21-2.95,2.36-.11,2.63-3.17-4.45-4.83v1.66h-12.98v-2.95h12.98v1.02l1.93-1.72.48.48,3.38-4.67,2.52,1.82-3.7,5.1,1.77,1.82,3.97-4.72,2.25,1.88-6.76,8,3.7-.21-.59-.97,2.36-1.56,3.06,4.88ZM131.28,96.47h-10.79v-2.95h10.79v2.95ZM131.5,119.54h-10.95v-8.8h10.95v8.8ZM130.96,105.05h-9.87v-2.68h9.87v2.68ZM131.01,109.24h-9.87v-2.79h9.87v2.79ZM128.44,116.75v-3.22h-4.88v3.22h4.88ZM137.02,112.56c-.59,1.77-1.29,3.7-2.15,5.9l-2.74-1.07c.81-2.09,1.5-4.02,2.09-5.8l2.79.97ZM146.63,116.53l-2.68,1.23-2.31-5.15,2.68-1.18,2.31,5.1Z"/>
        <path class="cls-1" d="M191.65,128.66l-5.31.16c-1.02,2.36-2.84,4.78-5.2,6.65l6.06,2.36-1.29,3.11-8.16-3.22c-3.59,1.99-7.94,3.17-12.93,3.6l-.38-3.22c3.49-.27,6.49-.97,9.12-1.99l-6.6-2.63,3.11-4.29-7.51.38-.11-3.17,9.61-.38,2.25-2.79h-8.48v-9.5h9.66v-2.47h-9.66v-5.9h-3.54v-3.11h3.54v-5.96h9.55v-3.54h3.86v3.54h9.39v5.96h2.68v3.11h-2.68v5.9h-9.55v2.47h9.55v9.5h-9.98l-2.25,2.79,15.13-.54.11,3.17ZM175.49,102.26v-2.84h-6.06v2.84h6.06ZM175.49,108.16v-2.79h-6.06v2.79h6.06ZM175.49,120.18v-3.49h-6.06v3.49h6.06ZM174.42,129.2l-2.15,2.84,5.2,2.04c1.99-1.34,3.65-3.11,4.72-5.15l-7.78.27ZM185.15,102.26v-2.84h-6.06v2.84h6.06ZM185.15,108.16v-2.79h-6.06v2.79h6.06ZM185.15,120.18v-3.49h-6.06v3.49h6.06ZM210.32,141.11c-3.81-2.41-6.98-5.47-9.55-9.18-2.9,4.08-6.49,7.19-10.79,9.34l-1.66-3.38c4.24-2.09,7.67-5.26,10.3-9.5-2.52-4.72-4.08-9.82-4.67-15.35-.54,1.13-1.07,2.2-1.66,3.27l-3.33-1.82c3.76-6.81,6.76-14.06,9.07-21.79l3.6,1.07c-.81,2.9-1.99,6.22-3.49,9.93h13.52v3.76h-3.65c-.05,7.67-1.72,14.7-5.1,20.98,2.41,4.02,5.58,7.19,9.39,9.61l-1.99,3.06ZM196.58,107.47c-.37.97-.8,1.88-1.23,2.79h2.09c.05,4.45,1.13,9.12,3.27,14.06,2.31-5.26,3.49-10.89,3.54-16.85h-7.67Z"/>
        <path class="cls-1" d="M240.36,94.16c-1.23,3.11-2.9,7.14-5.04,12.07h1.23v35.04h-3.92v-29.14c-1.29,2.9-2.41,5.53-3.38,7.51l-3.65-1.82c3.7-7.14,7.4-15.56,11-25.17l3.76,1.5ZM274.81,138.91h-34.61v-3.81h18.24l8.1-24.74,3.76,1.23-7.67,23.5h12.18v3.81ZM273.63,106.61h-32.57v-3.81h13.74v-9.77h4.35v9.77h14.49v3.81ZM249.59,132.26c-1.72-7.89-3.54-14.81-5.42-20.77l3.81-1.23c1.93,6.12,3.76,13.15,5.53,21.14l-3.92.86Z"/>
        <path class="cls-1" d="M48.72,208.64h-29.57c-4.35,0-7.78-1.4-10.41-4.19l-6.39,5.21-2.36-2.9,6.65-5.42v-14.33H.7v-3.76h9.71v17.44c1.72,2.84,4.62,4.29,8.75,4.29h29.57v3.65ZM11.11,174.19l-3.22,2.04-7.4-11.75,3.22-2.04,7.4,11.75ZM28.39,172.79h-7.51c0,1.88,0,3.7-.05,5.58h7.35c0,7.67.43,16.21-2.74,23.4h-5.53v-3.43h3.11c1.13-3.27,1.66-8.8,1.66-16.53h-4.08c-.48,7.14-2.31,13.63-5.47,19.42l-3-1.66c4.78-8.96,5.31-16.85,5.31-26.78h-5.2v-3.43h6.49v-7.3h3.65v7.3h6.01v3.43ZM48.45,171.18h-14.76c-1.02,1.82-2.04,3.43-2.95,4.78l-2.84-1.93c2.52-3.81,4.78-7.99,6.76-12.61l3.17,1.34c-.64,1.56-1.4,3.22-2.31,4.99h12.93v3.43ZM48.24,190.72h-7.89v9.55l-1.82,1.83h-5.53v-3.49h3.7v-7.89h-7.4v-3.38h7.4v-4.24h.97l4.67-3.65h-11.16v-3.33h15.88l1.02,2.95-7.73,6.06v2.2h7.89v3.38Z"/>
        <path class="cls-1" d="M87.44,188.46l-7.14,3.97v17.17h-3.81v-15.02l-10.25,5.69-1.77-3.22,12.02-6.65v-13.47h-6.17c-.75,2.95-1.45,5.26-2.04,7.03l-3.49-1.18c1.77-5.2,3.22-10.95,4.29-17.22l3.6.59c-.32,1.88-.81,4.24-1.5,7.14h5.31v-11.81h3.81v11.81h6.39v3.65h-6.39v11.32l5.37-3,1.77,3.22ZM112.18,209.66c-4.83-2.41-8.91-5.85-12.29-10.3-3.65,4.56-8.32,7.99-14.01,10.25l-1.39-3.49c5.58-2.2,9.98-5.53,13.25-9.98-3.06-5.04-4.94-10.3-5.63-15.78l3.7-.43c.54,4.13,1.93,8.32,4.19,12.56,2.74-5.21,4.13-10.68,4.13-16.53h-11.16c-1.23,2.58-2.68,5.04-4.13,7.46l-3.17-1.93c4.02-6.6,7.03-13.47,9.01-20.5l3.65.97c-.91,3.27-2.15,6.71-3.65,10.25h18.46v3.76h-5.31c0,7.35-1.88,14.06-5.63,20.12,3.06,4.51,6.98,7.89,11.64,10.2l-1.66,3.38Z"/>
        <path class="cls-1" d="M177.44,181.59h-21.46c-2.63,1.77-5.47,3.49-8.64,5.26h22.97v22.86h-3.97v-2.25h-21.62v2.25h-4.08v-19.32c-3.27,1.56-6.76,3.11-10.52,4.56l-1.4-3.49c6.92-2.68,13.63-5.96,20.07-9.87h-19.16v-3.7h19.21v-6.65h-13.31v-3.76h13.31v-6.44h4.08v6.44h10.3v3.7c2.95-2.63,5.53-5.2,7.62-7.84l3.11,2.31c-2.9,3.92-7.24,8-12.77,12.23h16.26v3.7ZM166.34,195.44v-4.83h-21.62v4.83h21.62ZM166.34,203.86v-4.94h-21.62v4.94h21.62ZM152.92,171.24v6.65h1.66c3.16-2.2,6.06-4.4,8.64-6.65h-10.3Z"/>
        <path class="cls-1" d="M210.4,178.43h-6.17v31.12h-3.81v-31.12h-6.55v-3.76h6.55v-13.36h3.81v13.36h6.17v3.76ZM224.57,189.96c0,4.56-.97,14.65-3.38,18.35l-5.85.05v-3.22h3.59c.86-2.15,1.56-6.12,2.04-11.91h-3.86c-1.34,6.92-4.24,12.13-8.69,15.72l-2.15-2.74c3.65-2.95,6.12-7.24,7.35-12.99h-6.39v-3.22h6.87c.16-1.72.27-3.11.21-4.19l3.54-.05c0,1.13-.11,2.52-.27,4.24l6.98-.05ZM240.07,166.84c-.37,3.81-1.72,12.93-3.92,15.78l-7.46.05v-3.6h4.99c.86-1.77,1.56-4.67,2.09-8.75h-8.91c-1.99,6.87-7.14,11.86-14.49,13.9l-.91-3.49c5.53-1.5,9.34-4.99,11.54-10.41h-10.52v-3.49h11.54c.48-2.09.7-3.97.64-5.63l3.76-.11c.05,1.61-.16,3.54-.59,5.74h12.23ZM242.86,189.43c0,4.99-.59,14.97-3.27,19.1l-6.06.11v-3.27h3.76c1.02-2.31,1.72-6.49,2.04-12.56h-4.67c-1.02,6.82-3.43,12.29-7.24,16.42l-2.58-2.36c3.38-3.65,5.53-8.32,6.44-14.06h-4.67v-3.38h5.04c.11-1.56.11-2.95,0-4.24h3.49c0,1.82-.05,3.22-.11,4.24h7.83Z"/>
        <path class="cls-1" d="M305.34,176.44c-8.8-3.81-16.47-7.89-23.07-12.29-6.55,4.35-14.17,8.53-22.86,12.56l-1.56-3.27c9.02-4.24,16.8-8.53,23.29-12.93h2.52c6.82,4.67,14.49,8.91,23.13,12.61l-1.45,3.33ZM302.65,190.29h-40.57v-13.85h40.57v13.85ZM299.22,209.77h-3.7v-1.23h-26.13v1.13h-3.76v-16.9h33.59v17.01ZM280.12,186.96v-7.19h-14.38v7.19h14.38ZM295.52,199.09v-3.01h-26.13v3.01h26.13ZM295.52,205.21v-3.01h-26.13v3.01h26.13ZM276.79,184.38l-2.47,2.41-4.56-4.51,2.47-2.41,4.56,4.51ZM292.89,173.87h-21.14v-3.33h21.14v3.33ZM299.06,186.96v-7.19h-6.22l2.25,2.2-4.88,4.94-2.47-2.47,4.67-4.67h-8.64v7.19h15.29Z"/>
      </g>
      <g>
        <g>
          <path class="cls-1" d="M110.55,0h-41.36v4.93h15.76v36.13h-15.76v4.93h41.36c20.56,0,33.83-9,33.83-22.99S131.11,0,110.55,0ZM110.55,40.53h-19.68V5.45h19.68c17.14,0,27.72,6.57,27.72,17.54s-10.58,17.54-27.72,17.54Z"/>
          <polygon class="cls-1" points="231.68 0 192.27 0 192.27 4.93 210 4.93 210 40.2 166.65 0 143 0 143 4.93 158.77 4.93 158.77 41.05 143 41.05 143 45.98 182.42 45.98 182.42 41.05 164.68 41.05 164.68 5.78 208.03 45.98 215.91 45.98 215.91 4.93 231.68 4.93 231.68 0"/>
          <polygon class="cls-1" points="231.68 0 192.27 0 192.27 4.93 210 4.93 210 40.2 166.65 0 143 0 143 4.93 158.77 4.93 158.77 41.05 143 41.05 143 45.98 182.42 45.98 182.42 41.05 164.68 41.05 164.68 5.78 208.03 45.98 215.91 45.98 215.91 4.93 231.68 4.93 231.68 0"/>
          <path class="cls-1" d="M294.96,41.05l-24.04-36.13h18.13V0h-48.34v4.93h17.87l-24.05,36.13h-11.82v4.93h36.52v-4.93h-17.73l7.16-10.84h32.51l7.16,10.84h-17.73v4.93h36.19v-4.93h-11.82ZM252.07,24.96l12.81-19.44,12.81,19.44h-25.62Z"/>
        </g>
        <path class="cls-1" d="M10.51,45.98v-4.93h17.73V5.45H5.12v24.76H0V0h62.4v30.22h-5.12V5.45h-23.12v35.6h17.74v4.93H10.51Z"/>
      </g>
      <g>
        <path class="cls-1" d="M44.12,274.59v-15.59h-5.5v-2.94h14.08v2.94h-5.5v15.59h-3.07Z"/>
        <path class="cls-1" d="M67.19,274.59l-1.51-4.16h-7.49l-1.51,4.16h-3.12l6.96-18.53h2.96l6.93,18.53h-3.23ZM61.95,260.01l-2.75,7.6h5.48l-2.73-7.6Z"/>
        <path class="cls-1" d="M74.91,274.59v-18.53h3.07v18.53h-3.07Z"/>
        <path class="cls-1" d="M103.06,256.06h3.07l-5.74,18.53h-2.43l-3.63-12.52-3.63,12.52h-2.46l-5.69-18.53h3.15l3.81,12.99,3.71-12.99h2.28l3.76,12.99,3.81-12.99Z"/>
        <path class="cls-1" d="M121.4,274.59l-1.51-4.16h-7.49l-1.51,4.16h-3.12l6.96-18.53h2.96l6.93,18.53h-3.23ZM116.16,260.01l-2.75,7.6h5.48l-2.73-7.6Z"/>
        <path class="cls-1" d="M140.81,256.06h2.99v18.53h-2.83l-8.87-13.21v13.21h-2.99v-18.53h2.83l8.87,13.21v-13.21Z"/>
        <path class="cls-1" d="M159.71,274.59v-18.53h5.61c5.08,0,9.13,4.05,9.13,9.26s-4.1,9.26-9.13,9.26h-5.61ZM162.78,271.65h2.54c3.26,0,6.06-2.7,6.06-6.33s-2.81-6.33-6.06-6.33h-2.54v12.65Z"/>
        <path class="cls-1" d="M180.02,274.59v-18.53h3.07v18.53h-3.07Z"/>
        <path class="cls-1" d="M197.94,265.09h8.07v9.5h-1.88l-.58-2.65c-1.06,1.46-3.18,2.96-5.95,2.96-4.82,0-8.92-4.18-8.92-9.58s4.1-9.58,8.92-9.58c4.31,0,7.44,3.07,8.12,6.22h-3.15c-.61-1.59-2.28-3.28-4.98-3.28-3.12,0-5.85,2.75-5.85,6.64s2.73,6.64,5.85,6.64,4.95-2.28,5.24-4.23h-4.9v-2.65Z"/>
        <path class="cls-1" d="M212.42,274.59v-18.53h3.07v18.53h-3.07Z"/>
        <path class="cls-1" d="M225.66,274.59v-15.59h-5.5v-2.94h14.08v2.94h-5.5v15.59h-3.07Z"/>
        <path class="cls-1" d="M248.73,274.59l-1.51-4.16h-7.49l-1.51,4.16h-3.12l6.96-18.53h2.96l6.93,18.53h-3.23ZM243.49,260.01l-2.75,7.6h5.48l-2.73-7.6Z"/>
        <path class="cls-1" d="M256.45,274.59v-18.53h3.07v15.59h8.79v2.94h-11.86Z"/>
        <path class="cls-1" d="M11.7,287.82h2.99v18.53h-2.83l-8.87-13.21v13.21H0v-18.53h2.83l8.87,13.21v-13.21Z"/>
        <path class="cls-1" d="M20.27,297.09c0-5.4,4.1-9.58,8.92-9.58s8.92,4.18,8.92,9.58-4.13,9.58-8.92,9.58-8.92-4.18-8.92-9.58ZM35.04,297.09c0-3.89-2.73-6.64-5.85-6.64s-5.85,2.75-5.85,6.64,2.73,6.64,5.85,6.64,5.85-2.75,5.85-6.64Z"/>
        <path class="cls-1" d="M59.38,287.82h2.75v18.53h-2.99v-11.91l-5.43,11.91h-1.64l-5.37-11.78v11.78h-2.99v-18.53h2.91l6.38,14.05,6.38-14.05Z"/>
        <path class="cls-1" d="M80.28,306.35l-1.51-4.16h-7.49l-1.51,4.16h-3.12l6.96-18.53h2.96l6.93,18.53h-3.23ZM75.04,291.77l-2.75,7.6h5.48l-2.73-7.6Z"/>
        <path class="cls-1" d="M87.99,306.35v-18.53h5.61c5.08,0,9.13,4.05,9.13,9.26s-4.1,9.26-9.13,9.26h-5.61ZM91.06,303.41h2.54c3.26,0,6.06-2.7,6.06-6.33s-2.81-6.33-6.06-6.33h-2.54v12.65Z"/>
        <path class="cls-1" d="M129.12,306.35l-1.51-4.16h-7.49l-1.51,4.16h-3.12l6.96-18.53h2.96l6.93,18.53h-3.23ZM123.88,291.77l-2.75,7.6h5.48l-2.73-7.6Z"/>
        <path class="cls-1" d="M135.49,300.66h3.07c.19,1.91,1.46,3.23,3.73,3.23s3.31-1.09,3.31-2.44c0-4.1-9.69-2.17-9.69-8.76,0-2.94,2.28-5.19,6.14-5.19s6.19,2.57,6.35,5.85h-3.07c-.11-1.8-1.32-3.07-3.28-3.07s-3.07,1.06-3.07,2.46c0,4.02,9.69,1.96,9.69,8.63,0,3.02-2.28,5.29-6.4,5.29s-6.62-2.54-6.78-6.01Z"/>
        <path class="cls-1" d="M153.39,300.66h3.07c.19,1.91,1.46,3.23,3.73,3.23s3.31-1.09,3.31-2.44c0-4.1-9.69-2.17-9.69-8.76,0-2.94,2.28-5.19,6.14-5.19s6.19,2.57,6.35,5.85h-3.07c-.11-1.8-1.32-3.07-3.28-3.07s-3.07,1.06-3.07,2.46c0,4.02,9.69,1.96,9.69,8.63,0,3.02-2.28,5.29-6.4,5.29s-6.62-2.54-6.78-6.01Z"/>
        <path class="cls-1" d="M171.08,297.09c0-5.4,4.1-9.58,8.92-9.58s8.92,4.18,8.92,9.58-4.13,9.58-8.92,9.58-8.92-4.18-8.92-9.58ZM185.85,297.09c0-3.89-2.73-6.64-5.85-6.64s-5.85,2.75-5.85,6.64,2.73,6.64,5.85,6.64,5.85-2.75,5.85-6.64Z"/>
        <path class="cls-1" d="M193.41,297.09c0-5.4,4.1-9.58,8.92-9.58,4.31,0,7.3,3.26,8.12,6.75h-3.15c-.58-1.93-2.28-3.81-4.98-3.81-3.12,0-5.85,2.75-5.85,6.64s2.73,6.64,5.85,6.64c2.73,0,4.45-1.88,5.11-3.81h3.15c-.82,3.47-3.81,6.75-8.26,6.75-4.82,0-8.92-4.18-8.92-9.58Z"/>
        <path class="cls-1" d="M215.98,306.35v-18.53h3.07v18.53h-3.07Z"/>
        <path class="cls-1" d="M237.14,306.35l-1.51-4.16h-7.49l-1.51,4.16h-3.12l6.96-18.53h2.96l6.93,18.53h-3.23ZM231.9,291.77l-2.75,7.6h5.48l-2.73-7.6Z"/>
        <path class="cls-1" d="M246.74,306.35v-15.59h-5.5v-2.94h14.08v2.94h-5.5v15.59h-3.07Z"/>
        <path class="cls-1" d="M260,306.35v-18.53h3.07v18.53h-3.07Z"/>
        <path class="cls-1" d="M268.66,297.09c0-5.4,4.1-9.58,8.92-9.58s8.92,4.18,8.92,9.58-4.13,9.58-8.92,9.58-8.92-4.18-8.92-9.58ZM283.43,297.09c0-3.89-2.73-6.64-5.85-6.64s-5.85,2.75-5.85,6.64,2.73,6.64,5.85,6.64,5.85-2.75,5.85-6.64Z"/>
        <path class="cls-1" d="M303.79,287.82h2.99v18.53h-2.83l-8.87-13.21v13.21h-2.99v-18.53h2.83l8.87,13.21v-13.21Z"/>
      </g>
    </g>
  </g>
</svg>